<?xml version="1.0" encoding="UTF-8"?>
<svg width="70px" height="28px" viewBox="0 0 70 28" version="1.1" xmlns="http://www.w3.org/2000/svg" xmlns:xlink="http://www.w3.org/1999/xlink">
    <!-- Generator: Sketch 58 (84663) - https://sketch.com -->
    <title>jc-logo</title>
    <desc>Created with Sketch.</desc>
    <g id="jc-logo" stroke="none" stroke-width="1" fill="none" fill-rule="evenodd">
        <path d="M10.81496,22.56046 C10.6763593,23.4659845 10.2651834,24.1659075 9.58142,24.66025 C8.89765658,25.1545925 7.99214564,25.40176 6.86486,25.40176 C5.54353339,25.40176 4.51559367,25.0714333 3.78101,24.41077 C3.04642633,23.7501067 2.67914,22.819186 2.67914,21.61798 C2.67914,20.8510562 2.84545834,20.1742329 3.1781,19.58749 C3.51074166,19.0007471 3.99583681,18.5433716 4.6334,18.21535 C5.27096319,17.8873284 6.02401566,17.72332 6.89258,17.72332 C7.93670522,17.72332 8.78677672,17.9473878 9.44282,18.39553 C10.0988633,18.8436722 10.5146591,19.4835358 10.69022,20.31514 L8.61122,20.55076 C8.50033945,20.144198 8.29937146,19.8346611 8.00831,19.62214 C7.71724854,19.4096189 7.34534226,19.30336 6.89258,19.30336 C6.24577677,19.30336 5.73758185,19.504328 5.36798,19.90627 C4.99837815,20.308212 4.81358,20.8602965 4.81358,21.56254 C4.81358,22.2832636 4.99606818,22.839968 5.36105,23.23267 C5.72603182,23.625372 6.24115667,23.82172 6.90644,23.82172 C7.40540249,23.82172 7.81195843,23.7131511 8.12612,23.49601 C8.44028157,23.2788689 8.63893958,22.967022 8.7221,22.56046 L10.81496,22.56046 Z M14.00276,22.0615 C14.012,22.4218618 14.1113291,22.7406386 14.30075,23.01784 C14.4901709,23.2950414 14.7535083,23.5121792 15.09077,23.66926 C15.4280317,23.8263408 15.8184178,23.90488 16.26194,23.90488 C17.3430254,23.90488 18.0129187,23.5768633 18.27164,22.92082 L20.19818,22.92082 C20.004139,23.7616642 19.5767933,24.385358 18.91613,24.79192 C18.2554667,25.198482 17.3476458,25.40176 16.19264,25.40176 C14.8805534,25.40176 13.8618536,25.0737433 13.13651,24.4177 C12.4111664,23.7616567 12.0485,22.8422859 12.0485,21.65956 C12.0485,20.9018762 12.2171283,20.225053 12.55439,19.62907 C12.8916517,19.033087 13.3767468,18.5664717 14.00969,18.22921 C14.6426332,17.8919483 15.3841357,17.72332 16.23422,17.72332 C17.5278265,17.72332 18.5280465,18.0490267 19.23491,18.70045 C19.9417735,19.3518733 20.2952,20.2643141 20.2952,21.4378 L20.2952,22.0615 L14.00276,22.0615 Z M18.36866,20.80024 C18.3501799,20.2920375 18.1515219,19.8970314 17.77268,19.61521 C17.3938381,19.3333886 16.8671634,19.19248 16.19264,19.19248 C15.6197571,19.19248 15.132352,19.3449385 14.73041,19.64986 C14.328468,19.9547815 14.1044002,20.3382377 14.0582,20.80024 L18.36866,20.80024 Z M22.01384,25.18 L22.01384,15.28396 L24.07898,15.28396 L24.07898,19.02616 C24.4023816,18.6011179 24.8181775,18.2777211 25.32638,18.05596 C25.8345825,17.8341989 26.3982169,17.72332 27.0173,17.72332 C27.7103035,17.72332 28.3247573,17.8757785 28.86068,18.1807 C29.3966027,18.4856215 29.8170185,18.9222072 30.12194,19.49047 C30.4268615,20.0587328 30.57932,20.7263162 30.57932,21.49324 C30.57932,22.2509238 30.4268615,22.9231271 30.12194,23.50987 C29.8170185,24.0966129 29.3804328,24.5586083 28.81217,24.89587 C28.2439072,25.2331317 27.5763238,25.40176 26.8094,25.40176 C25.5989539,25.40176 24.6749632,24.9905841 24.0374,24.16822 L24.0374,25.18 L22.01384,25.18 Z M24.06512,21.72886 C24.06512,22.320223 24.2591581,22.819178 24.64724,23.22574 C25.0260819,23.6138219 25.5527566,23.80786 26.22728,23.80786 C26.9480036,23.80786 27.4977781,23.6161319 27.87662,23.23267 C28.2554619,22.8492081 28.44488,22.2832637 28.44488,21.53482 C28.44488,20.8325765 28.2554619,20.2874219 27.87662,19.89934 C27.4977781,19.5112581 26.9711034,19.31722 26.29658,19.31722 C25.9731784,19.31722 25.6682614,19.3726594 25.38182,19.48354 C25.0953786,19.5944206 24.8459011,19.7561189 24.63338,19.96864 C24.4485791,20.1534409 24.3076705,20.3659588 24.21065,20.6062 C24.1136295,20.8464412 24.06512,21.0959187 24.06512,21.35464 L24.06512,21.72886 Z M40.64168,21.53482 C40.64168,22.7175459 40.244364,23.6577065 39.44972,24.35533 C38.655076,25.0529535 37.5832467,25.40176 36.2342,25.40176 C34.8851533,25.40176 33.8318038,25.0645034 33.07412,24.38998 C32.3164362,23.7154566 31.9376,22.782226 31.9376,21.59026 C31.9376,20.8233362 32.1131582,20.1488229 32.46428,19.5667 C32.8154018,18.9845771 33.3212867,18.5318216 33.98195,18.20842 C34.6426133,17.8850184 35.4256955,17.72332 36.33122,17.72332 C37.6802667,17.72332 38.7359262,18.0582667 39.49823,18.72817 C40.2605338,19.3980733 40.64168,20.333614 40.64168,21.53482 Z M38.50724,21.56254 C38.50724,20.8418164 38.3155119,20.285112 37.93205,19.89241 C37.5485881,19.499708 37.0011236,19.30336 36.28964,19.30336 C35.5873965,19.30336 35.0422419,19.502018 34.65416,19.89934 C34.2660781,20.296662 34.07204,20.8510564 34.07204,21.56254 C34.07204,22.2832636 34.2637681,22.839968 34.64723,23.23267 C35.0306919,23.625372 35.5735365,23.82172 36.27578,23.82172 C36.9780235,23.82172 37.525488,23.625372 37.91819,23.23267 C38.310892,22.839968 38.50724,22.2832636 38.50724,21.56254 Z M42.36032,25.18 L42.36032,17.94508 L44.38388,17.94508 L44.38388,19.12318 C45.0953636,18.2546157 45.9685348,17.82034 47.00342,17.82034 C47.2436612,17.82034 47.5116185,17.8434398 47.8073,17.88964 L47.57168,19.60828 C47.2944786,19.5528397 47.0265213,19.52512 46.7678,19.52512 C46.0747965,19.52512 45.5019223,19.7191581 45.04916,20.10724 C44.6333579,20.4768418 44.42546,20.9018776 44.42546,21.38236 L44.42546,25.18 L42.36032,25.18 Z M54.16904,20.03794 C54.0673995,19.7330185 53.8687415,19.5089507 53.57306,19.36573 C53.2773785,19.2225093 52.8615827,19.1509 52.32566,19.1509 C51.1798943,19.1509 50.60702,19.4003775 50.60702,19.89934 C50.60702,20.102621 50.7132789,20.2550795 50.9258,20.35672 C51.1383211,20.4583605 51.544877,20.5553795 52.14548,20.64778 L53.10182,20.78638 C53.9426642,20.9065006 54.5894577,21.0612691 55.04222,21.25069 C55.4949823,21.4401109 55.8160691,21.6803485 56.00549,21.97141 C56.1949109,22.2624715 56.28962,22.6297578 56.28962,23.07328 C56.28962,23.8402038 55.9708432,24.420008 55.33328,24.81271 C54.6957168,25.205412 53.7532462,25.40176 52.50584,25.40176 C51.2399537,25.40176 50.2697634,25.1938621 49.59524,24.77806 C48.9207166,24.3622579 48.5280206,23.7293243 48.41714,22.87924 L50.39912,22.87924 C50.5562008,23.5722435 51.2491939,23.91874 52.47812,23.91874 C53.1156832,23.91874 53.5776786,23.8586806 53.86412,23.73856 C54.1505614,23.6184394 54.29378,23.4244013 54.29378,23.15644 C54.29378,22.953159 54.1759712,22.7960806 53.94035,22.6852 C53.7341815,22.5881795 53.3882981,22.5017718 52.9026916,22.4259748 L51.79898,22.2694 C50.6439742,22.0938391 49.8331723,21.8328117 49.36655,21.48631 C48.8999277,21.1398083 48.66662,20.6246834 48.66662,19.94092 C48.66662,19.2386765 48.9877068,18.6935219 49.62989,18.30544 C50.2720732,17.9173581 51.1706542,17.72332 52.32566,17.72332 C53.4437056,17.72332 54.307637,17.8919483 54.91748,18.22921 C55.527323,18.5664717 55.929259,19.0954564 56.1233,19.81618 L54.16904,20.03794 Z M63.9542,25.18 L61.34852,21.39622 L59.94866,22.43572 L59.94866,25.18 L57.88352,25.18 L57.88352,15.28396 L59.94866,15.28396 L59.94866,20.48146 L63.30278,17.94508 L65.97776,17.94508 L62.87312,20.27356 L66.29654,25.18 L63.9542,25.18 Z M67.39148,25.18 L67.39148,17.94508 L69.45662,17.94508 L69.45662,25.18 L67.39148,25.18 Z M67.36376,16.97488 L67.36376,15.2008 L69.48434,15.2008 L69.48434,16.97488 L67.36376,16.97488 Z" id="ceborski" fill="#000000" fill-rule="nonzero"></path>
        <path d="M1.14068,14.33038 C1.48256171,14.4135404 1.81519838,14.45512 2.1386,14.45512 C2.46200162,14.45512 2.69299931,14.3858207 2.8316,14.24722 C2.97020069,14.1086193 3.0395,13.8637618 3.0395,13.51264 L3.0395,5.94508 L5.10464,5.94508 L5.10464,13.3879 C5.10464,14.2934245 4.90367201,14.9586979 4.50173,15.38374 C4.09978799,15.8087821 3.47378425,16.0213 2.6237,16.0213 C2.0046169,16.0213 1.40402291,15.9335209 0.8219,15.75796 L1.14068,14.33038 Z M3.01178,4.97488 L3.01178,3.2008 L5.13236,3.2008 L5.13236,4.97488 L3.01178,4.97488 Z M12.69992,13.18 L12.69992,12.19594 C12.2748779,12.602502 11.8198124,12.9004891 11.33471,13.08991 C10.8496076,13.2793309 10.2929031,13.37404 9.66458,13.37404 C8.71285524,13.37404 7.98290254,13.1823119 7.4747,12.79885 C6.96649746,12.4153881 6.7124,11.8679236 6.7124,11.15644 C6.7124,10.361796 7.04503667,9.77044194 7.71032,9.38236 C8.37560333,8.99427806 9.42433284,8.78176018 10.85654,8.7448 L12.63062,8.70322 L12.63062,8.42602 C12.63062,8.01945797 12.4827815,7.70761109 12.1871,7.49047 C11.8914185,7.27332891 11.4710027,7.16476 10.92584,7.16476 C9.88171478,7.16476 9.25802102,7.46043704 9.05474,8.0518 L7.18364,7.87162 C7.33148074,7.14165635 7.72186684,6.60112176 8.35481,6.25 C8.98775316,5.89887824 9.86785436,5.72332 10.99514,5.72332 C13.4067921,5.72332 14.6126,6.67503048 14.6126,8.57848 L14.6126,13.18 L12.69992,13.18 Z M12.63062,9.9229 L10.89812,9.96448 C10.1496763,9.98296009 9.60221173,10.0776691 9.25571,10.24861 C8.90920827,10.4195509 8.73596,10.6759583 8.73596,11.01784 C8.73596,11.3135215 8.86300873,11.5398992 9.11711,11.69698 C9.37121127,11.8540608 9.7384976,11.9326 10.21898,11.9326 C10.6070619,11.9326 10.9627984,11.8840905 11.2862,11.78707 C11.6096016,11.6900495 11.8821789,11.5491409 12.10394,11.36434 C12.4550618,11.0871386 12.63062,10.7360221 12.63062,10.31098 L12.63062,9.9229 Z M16.6223,13.18 L16.6223,5.94508 L18.64586,5.94508 L18.64586,7.12318 C19.3573436,6.25461566 20.2305148,5.82034 21.2654,5.82034 C21.5056412,5.82034 21.7735985,5.84343977 22.06928,5.88964 L21.83366,7.60828 C21.5564586,7.55283972 21.2885013,7.52512 21.02978,7.52512 C20.3367765,7.52512 19.7639023,7.71915806 19.31114,8.10724 C18.8953379,8.47684185 18.68744,8.9018776 18.68744,9.38236 L18.68744,13.18 L16.6223,13.18 Z M24.57794,10.0615 C24.58718,10.4218618 24.6865091,10.7406386 24.87593,11.01784 C25.0653509,11.2950414 25.3286883,11.5121792 25.66595,11.66926 C26.0032117,11.8263408 26.3935978,11.90488 26.83712,11.90488 C27.9182054,11.90488 28.5880987,11.5768633 28.84682,10.92082 L30.77336,10.92082 C30.579319,11.7616642 30.1519733,12.385358 29.49131,12.79192 C28.8306467,13.198482 27.9228258,13.40176 26.76782,13.40176 C25.4557334,13.40176 24.4370336,13.0737433 23.71169,12.4177 C22.9863464,11.7616567 22.62368,10.8422859 22.62368,9.65956 C22.62368,8.90187621 22.7923083,8.22505298 23.12957,7.62907 C23.4668317,7.03308702 23.9519268,6.56647169 24.58487,6.22921 C25.2178132,5.89194831 25.9593157,5.72332 26.8094,5.72332 C28.1030065,5.72332 29.1032265,6.04902674 29.81009,6.70045 C30.5169535,7.35187326 30.87038,8.26431413 30.87038,9.4378 L30.87038,10.0615 L24.57794,10.0615 Z M28.94384,8.80024 C28.9253599,8.29203746 28.7267019,7.89703141 28.34786,7.61521 C27.9690181,7.33338859 27.4423434,7.19248 26.76782,7.19248 C26.1949371,7.19248 25.707532,7.34493848 25.30559,7.64986 C24.903648,7.95478152 24.6795802,8.33823769 24.63338,8.80024 L28.94384,8.80024 Z M38.6597,13.18 L36.05402,9.39622 L34.65416,10.43572 L34.65416,13.18 L32.58902,13.18 L32.58902,3.28396 L34.65416,3.28396 L34.65416,8.48146 L38.00828,5.94508 L40.68326,5.94508 L37.57862,8.27356 L41.00204,13.18 L38.6597,13.18 Z" id="jarek" fill="#000000" fill-rule="nonzero"></path>
    </g>
</svg>