<?xml version="1.0" encoding="UTF-8"?>
<svg width="16px" height="16px" viewBox="0 0 16 16" version="1.1" xmlns="http://www.w3.org/2000/svg" xmlns:xlink="http://www.w3.org/1999/xlink">
    <!-- Generator: Sketch 58 (84663) - https://sketch.com -->
    <title>share-twitter</title>
    <desc>Created with Sketch.</desc>
    <g id="share-twitter" stroke="none" stroke-width="1" fill="none" fill-rule="evenodd">
        <rect id="Rectangle" x="0" y="0" width="16" height="16"></rect>
        <path d="M16,3 C15.4,3.3 14.8,3.4 14.1,3.5 C14.8,3.1 15.3,2.5 15.5,1.7 C14.9,2.1 14.2,2.3 13.4,2.5 C12.8,1.9 11.9,1.5 11,1.5 C9.3,1.5 7.8,3 7.8,4.8 C7.8,5.1 7.8,5.3 7.9,5.5 C5.2,5.4 2.7,4.1 1.1,2.1 C0.8,2.6 0.7,3.1 0.7,3.8 C0.7,4.9 1.3,5.9 2.2,6.5 C1.7,6.5 1.2,6.3 0.7,6.1 C0.7,6.1 0.7,6.1 0.7,6.1 C0.7,7.7 1.8,9 3.3,9.3 C3,9.4 2.7,9.4 2.4,9.4 C2.2,9.4 2,9.4 1.8,9.3 C2.2,10.6 3.4,11.6 4.9,11.6 C3.8,12.5 2.4,13 0.8,13 C0.5,13 0.3,13 0,13 C1.5,13.9 3.2,14.5 5,14.5 C11,14.5 14.3,9.5 14.3,5.2 C14.3,5.1 14.3,4.9 14.3,4.8 C15,4.3 15.6,3.7 16,3 Z" id="Path" fill="#000000" fill-rule="nonzero"></path>
    </g>
</svg>