<?xml version="1.0" encoding="UTF-8"?>
<svg width="16px" height="16px" viewBox="0 0 16 16" version="1.1" xmlns="http://www.w3.org/2000/svg" xmlns:xlink="http://www.w3.org/1999/xlink">
    <!-- Generator: Sketch 58 (84663) - https://sketch.com -->
    <title>social/behance</title>
    <desc>Created with Sketch.</desc>
    <g id="social/behance" stroke="none" stroke-width="1" fill="none" fill-rule="evenodd">
        <g id="behance-logo" transform="translate(0.000000, 3.000000)" fill="#000000" fill-rule="nonzero">
            <path d="M14.4197494,1.41512761 L10.4188956,1.41512761 L10.4188956,0.421345708 L14.4200835,0.421345708 L14.4200835,1.41512761 L14.4197494,1.41512761 L14.4197494,1.41512761 Z M7.75543387,5.49030162 C8.01358701,5.89015313 8.14258933,6.37564733 8.14258933,6.94563341 C8.14258933,7.53507193 7.99714153,8.06385151 7.70123434,8.53093271 C7.51298376,8.84001856 7.27925754,9.10110441 6.99842227,9.31129466 C6.68213457,9.55437587 6.30767517,9.721058 5.87719722,9.81011601 C5.44534571,9.89932251 4.97793039,9.94438979 4.47443155,9.94438979 L0,9.94438979 L0,0.00916937355 L4.79814385,0.00916937355 C6.00757309,0.0288445476 6.86500232,0.37924826 7.37132251,1.06739675 C7.67513689,1.4894478 7.82567053,1.99587935 7.82567053,2.58453828 C7.82567053,3.19194432 7.67331787,3.67795824 7.36653364,4.04722042 C7.19587935,4.25425522 6.94377726,4.44258005 6.61004176,4.61256613 C7.11554524,4.79762413 7.49909977,5.08903944 7.75543387,5.49030162 Z M2.29130394,3.92612529 L4.39365197,3.92612529 C4.8256891,3.92612529 5.174942,3.84400928 5.44393503,3.67985151 C5.71274246,3.5159536 5.84686775,3.22461253 5.84686775,2.8063109 C5.84686775,2.34416705 5.66927146,2.03741995 5.31322506,1.8897819 C5.00718329,1.78721114 4.61561021,1.73438515 4.14047332,1.73438515 L2.29130394,1.73438515 L2.29130394,3.92612529 Z M6.0492993,6.8037123 C6.0492993,6.28762877 5.83836659,5.93083991 5.41735499,5.73939675 C5.18192111,5.63058933 4.84974478,5.57497912 4.42383295,5.57100696 L2.29130394,5.57100696 L2.29130394,8.21869142 L4.39083063,8.21869142 C4.82216241,8.21869142 5.15600928,8.16222738 5.39693735,8.04443619 C5.83142459,7.82786079 6.0492993,7.41568445 6.0492993,6.8037123 Z M15.9041856,5.18741531 C15.9525197,5.51246404 15.9743852,5.98407425 15.9655128,6.60050116 L10.7839629,6.60050116 C10.8125476,7.3157123 11.0594524,7.81587007 11.5277216,8.10208817 C11.810116,8.28157773 12.1525012,8.36922506 12.5534292,8.36922506 C12.9761856,8.36922506 13.320761,8.26234803 13.5860046,8.04265429 C13.7305244,7.92619954 13.8580046,7.76181903 13.9682227,7.55441299 L15.8674339,7.55441299 C15.8176891,7.97683527 15.5890116,8.40527146 15.1780603,8.84064965 C14.5413643,9.53265893 13.6484084,9.87964733 12.5016056,9.87964733 C11.5542274,9.87964733 10.7192947,9.58700696 9.99458005,9.00384223 C9.27227842,8.41863573 8.90951276,7.46954988 8.90951276,6.15298376 C8.90951276,4.91838515 9.23519258,3.97341995 9.88874246,3.31567517 C10.5447053,2.65670534 11.3912575,2.3287239 12.4347471,2.3287239 C13.0532529,2.3287239 13.6108028,2.4392761 14.1082135,2.66153132 C14.604065,2.88400928 15.0138654,3.23415313 15.3366125,3.71537819 C15.6286961,4.13917401 15.8165383,4.62919722 15.9041856,5.18741531 Z M14.0347842,5.37280742 C13.9999629,4.87825522 13.8348399,4.50394432 13.537522,4.24812993 C13.2426543,3.99161021 12.8742831,3.86283063 12.4347471,3.86283063 C11.9563805,3.86283063 11.587007,4.0004826 11.3245476,4.2710348 C11.0603063,4.54103016 10.8958886,4.90810209 10.8285104,5.37284455 L14.0347842,5.37284455 L14.0347842,5.37280742 Z" id="Behance"></path>
        </g>
    </g>
</svg>