<?xml version="1.0" encoding="UTF-8"?>
<svg width="16px" height="16px" viewBox="0 0 16 16" version="1.1" xmlns="http://www.w3.org/2000/svg" xmlns:xlink="http://www.w3.org/1999/xlink">
    <!-- Generator: Sketch 58 (84663) - https://sketch.com -->
    <title>social/dribbble</title>
    <desc>Created with Sketch.</desc>
    <g id="social/dribbble" stroke="none" stroke-width="1" fill="none" fill-rule="evenodd">
        <g id="dribbble-ball-mark" fill="#000000">
            <path d="M8,0 C3.58352,0 0,3.58352 0,8 C0,12.41648 3.58352,16 8,16 C12.407808,16 16,12.41648 16,8 C16,3.58352 12.407808,0 8,0 Z M13.28416,3.687632 C14.238608,4.85032 14.81128,6.334064 14.82864,7.939264 C14.60304,7.895872 12.347072,7.436016 10.07376,7.722336 C10.021696,7.609552 9.978304,7.488064 9.926256,7.366592 C9.787424,7.03688 9.631232,6.69848 9.475056,6.37744 C11.991328,5.353584 13.136656,3.878528 13.28416,3.687632 Z M8,1.1800432 C9.73536,1.1800432 11.323216,1.8308 12.52928,2.898048 C12.407808,3.071584 11.375264,4.4512 8.945776,5.362256 C7.826464,3.305856 6.58568,1.62256 6.3948,1.362256 C6.90672,1.2407808 7.444688,1.1800432 8,1.1800432 Z M5.09328,1.822128 C5.275488,2.065072 6.49024,3.757056 7.626896,5.770064 C4.43384,6.620384 1.613888,6.60306664 1.3101952,6.60306664 C1.752704,4.485904 3.184384,2.724512 5.09328,1.822128 Z M1.1626896,8.008672 C1.1626896,7.939264 1.1626896,7.869856 1.1626896,7.800432 C1.4577008,7.809104 4.77224,7.852496 8.182208,6.82864 C8.381776,7.210416 8.563984,7.600864 8.73752,7.991328 C8.650752,8.01736 8.555312,8.043392 8.468544,8.069408 C4.945776,9.20608 3.071584,12.312368 2.915408,12.572672 C1.8308,11.366592 1.1626896,9.761392 1.1626896,8.008672 Z M8,14.837312 C6.420832,14.837312 4.96312,14.299344 3.809104,13.39696 C3.930592,13.145344 5.31888,10.47288 9.17136,9.127984 C9.18872,9.119312 9.197392,9.119312 9.214752,9.110624 C10.177872,11.600864 10.568336,13.691968 10.672448,14.290672 C9.84816,14.646416 8.945776,14.837312 8,14.837312 Z M11.80912,13.665952 C11.739696,13.249456 11.37528,11.253792 10.481568,8.798272 C12.624736,8.459872 14.498912,9.015184 14.733184,9.09328 C14.438176,10.993488 13.344896,12.633408 11.80912,13.665952 Z" id="Shape"></path>
        </g>
    </g>
</svg>