<?xml version="1.0" encoding="UTF-8"?>
<svg width="16px" height="16px" viewBox="0 0 16 16" version="1.1" xmlns="http://www.w3.org/2000/svg" xmlns:xlink="http://www.w3.org/1999/xlink">
    <!-- Generator: Sketch 58 (84663) - https://sketch.com -->
    <title>social/instagram</title>
    <desc>Created with Sketch.</desc>
    <g id="social/instagram" stroke="none" stroke-width="1" fill="none" fill-rule="evenodd">
        <g id="instagram" fill="#000000" fill-rule="nonzero">
            <path d="M10.66656,8 C10.66656,7.264 10.4064,6.63552 9.88544,6.11456 C9.36448,5.5936 8.736,5.33344 8,5.33344 C7.264,5.33344 6.63552,5.5936 6.11456,6.11456 C5.5936,6.63552 5.33344,7.264 5.33344,8 C5.33344,8.736 5.5936,9.36448 6.11456,9.88544 C6.63552,10.4064 7.264,10.66656 8,10.66656 C8.736,10.66656 9.36448,10.4064 9.88544,9.88544 C10.4064,9.36448 10.66656,8.736 10.66656,8 Z M12.10432,8 C12.10432,9.13888 11.70496,10.10752 10.90624,10.90624 C10.10752,11.70496 9.13888,12.10432 8,12.10432 C6.86112,12.10432 5.89248,11.70496 5.09376,10.90624 C4.29504,10.10752 3.89568,9.13888 3.89568,8 C3.89568,6.86112 4.29504,5.89248 5.09376,5.09376 C5.89248,4.29504 6.86112,3.89568 8,3.89568 C9.13888,3.89568 10.10752,4.29504 10.90624,5.09376 C11.70496,5.89248 12.10432,6.86112 12.10432,8 Z M13.22912,3.72928 C13.22912,3.99296 13.13536,4.21888 12.94784,4.4064 C12.7706073,4.58952727 12.5255379,4.69121484 12.27072,4.68736 C12.00704,4.68736 11.78112,4.5936 11.5936,4.4064 C11.4104727,4.22916728 11.3087852,3.98409792 11.31264,3.72928 C11.31264,3.46528 11.4064,3.23968 11.5936,3.05216 C11.7707231,2.86879737 12.0158066,2.76687228 12.27072,2.77056 C12.53472,2.77056 12.76032,2.86464 12.94784,3.05216 C13.13536,3.23968 13.22944,3.46528 13.22944,3.72928 L13.22912,3.72928 Z M8,1.43744 C7.95136,1.43744 7.68576,1.43584 7.2032,1.43232 C6.72064,1.42912 6.35424,1.42912 6.10432,1.43232 C5.85408,1.43552 5.51904,1.44608 5.09888,1.46368 C4.67872,1.48096 4.32128,1.51552 4.02592,1.56768 C3.73088,1.61984 3.48256,1.68416 3.28128,1.76032 C2.93753003,1.8969438 2.62548852,2.10268427 2.36448,2.3648 C2.10247939,2.62583824 1.89684923,2.93787765 1.76032,3.2816 C1.68416,3.4832 1.61952,3.7312 1.56768,4.02624 C1.51552,4.3216 1.48096,4.67904 1.46368,5.0992 C1.44608,5.51936 1.43584,5.8544 1.43232,6.10464 C1.42912,6.35424 1.42912,6.72096 1.43232,7.20352 L1.43744,8 C1.43744,8.04864 1.43584,8.31424 1.43232,8.7968 C1.42912,9.27936 1.42912,9.64576 1.43232,9.89568 C1.43552,10.14592 1.44608,10.48096 1.46368,10.90112 C1.48096,11.32128 1.51552,11.67872 1.56768,11.97408 C1.61984,12.26912 1.68416,12.51744 1.76032,12.71872 C1.89684923,13.0624423 2.10247939,13.3744818 2.36448,13.63552 C2.62551824,13.8975206 2.93755765,14.1031508 3.28128,14.23968 C3.48288,14.31584 3.73088,14.38048 4.02592,14.43232 C4.32128,14.48448 4.67872,14.51904 5.09888,14.53632 C5.51904,14.55392 5.85408,14.56416 6.10432,14.56768 C6.35392,14.57088 6.72064,14.57088 7.2032,14.56768 L8,14.56256 C8.04864,14.56256 8.31424,14.56416 8.7968,14.56768 C9.27936,14.57088 9.64576,14.57088 9.89568,14.56768 C10.14592,14.56448 10.48096,14.55392 10.90112,14.53632 C11.32128,14.51904 11.67872,14.48448 11.97408,14.43232 C12.26912,14.38016 12.51744,14.31584 12.71872,14.23968 C13.0624423,14.1031508 13.3744818,13.8975206 13.63552,13.63552 C13.8975206,13.3744818 14.1031508,13.0624423 14.23968,12.71872 C14.31584,12.51712 14.38048,12.26912 14.43232,11.97408 C14.48448,11.67872 14.51904,11.32128 14.53632,10.90112 C14.55392,10.48096 14.56416,10.14592 14.56768,9.89568 C14.57088,9.64608 14.57088,9.27936 14.56768,8.7968 L14.56256,8 C14.56256,7.95136 14.56416,7.68576 14.56768,7.2032 C14.57088,6.72064 14.57088,6.35424 14.56768,6.10432 C14.56448,5.85408 14.55392,5.51904 14.53632,5.09888 C14.51904,4.67872 14.48448,4.32128 14.43232,4.02592 C14.38016,3.73088 14.31584,3.48256 14.23968,3.28128 C14.1031508,2.93755765 13.8975206,2.62551824 13.63552,2.36448 C13.3744818,2.10247939 13.0624423,1.89684923 12.71872,1.76032 C12.51712,1.68416 12.26912,1.61952 11.97408,1.56768 C11.67872,1.51552 11.32128,1.48096 10.90112,1.46368 C10.48096,1.44608 10.14592,1.43584 9.89568,1.43232 C9.64608,1.42912 9.27936,1.42912 8.7968,1.43232 L8,1.43744 Z M16,8 C16,9.5904 15.98272,10.6912 15.94784,11.30208 C15.8784,12.74656 15.448,13.86464 14.65632,14.65632 C13.86464,15.448 12.74656,15.87872 11.30208,15.94784 C10.69088,15.98272 9.59008,16 8,16 C6.4096,16 5.3088,15.98272 4.69792,15.94784 C3.25344,15.8784 2.13536,15.448 1.34368,14.65632 C0.552,13.86464 0.1216,12.74656 0.05216,11.30208 C0.01728,10.69088 0,9.59008 0,8 C0,6.4096 0.01728,5.3088 0.05216,4.69792 C0.1216,3.25344 0.552,2.13536 1.34368,1.34368 C2.13536,0.552 3.25344,0.1216 4.69792,0.05216 C5.30912,0.01728 6.40992,0 8,0 C9.5904,0 10.6912,0.01728 11.30208,0.05216 C12.74656,0.1216 13.86464,0.552 14.65632,1.34368 C15.448,2.13536 15.87872,3.25344 15.94784,4.69792 C15.98272,5.30912 16,6.40992 16,8 Z" id="Shape"></path>
        </g>
    </g>
</svg>