<?xml version="1.0" encoding="UTF-8"?>
<svg width="16px" height="16px" viewBox="0 0 16 16" version="1.1" xmlns="http://www.w3.org/2000/svg" xmlns:xlink="http://www.w3.org/1999/xlink">
    <!-- Generator: Sketch 58 (84663) - https://sketch.com -->
    <title>social/linkedin</title>
    <desc>Created with Sketch.</desc>
    <g id="social/linkedin" stroke="none" stroke-width="1" fill="none" fill-rule="evenodd">
        <g id="Group-8">
            <path d="M-2.84217094e-14,14.8538596 C-2.84217094e-14,15.4866847 0.52935165,16 1.18237072,16 L14.8176293,16 C15.4706268,16 16,15.4866847 16,14.8538596 L16,1.14614038 C16,0.513101458 15.4706268,0 14.8176293,0 L1.18237072,0 C0.52935165,0 -2.84217094e-14,0.513101458 -2.84217094e-14,1.14614038 L-2.84217094e-14,14.8538596 L-2.84217094e-14,14.8538596 Z" id="path14" fill="#000000" fill-rule="nonzero" transform="translate(8.000000, 8.000000) scale(-1, 1) rotate(-180.000000) translate(-8.000000, -8.000000) "></path>
            <path d="M4.8352457,2.69463655 L4.8352457,9.94310805 L2.42598795,9.94310805 L2.42598795,2.69463655 L4.8352457,2.69463655 Z M3.6306061,10.9327644 C4.47076302,10.9327644 4.99368938,11.4893657 4.99368938,12.1849564 C4.97803162,12.8962049 4.47076302,13.4373629 3.6465427,13.4373629 C2.82240818,13.4373629 2.28356666,12.8962049 2.28356666,12.1849564 C2.28356666,11.4893657 2.80638578,10.9327644 3.61490544,10.9327644 L3.6305632,10.9327644 L3.6306061,10.9327644 Z" id="path28" fill="#FFFFFF" transform="translate(3.638628, 8.066000) scale(-1, 1) rotate(-180.000000) translate(-3.638628, -8.066000) "></path>
            <path d="M6.16836474,6.01880094 L8.57760103,6.01880094 L8.57760103,10.0666542 C8.57760103,10.283289 8.5932588,10.4997093 8.6568765,10.654571 C8.83104229,11.0874116 9.22746252,11.5356955 9.89302466,11.5356955 C10.7648188,11.5356955 11.113558,10.8709913 11.113558,9.89656374 L11.113558,6.01880094 L13.5226012,6.01880094 L13.5226012,10.1749716 C13.5226012,12.4013767 12.3340055,13.4373629 10.7489037,13.4373629 C9.44918072,13.4373629 8.8785947,12.7108857 8.56157864,12.2160575 L8.57766538,12.2160575 L8.57766538,13.2672724 L6.16836474,13.2672724 C6.2000449,12.587125 6.16836474,6.01880094 6.16836474,6.01880094 L6.16836474,6.01880094 Z" id="path30" fill="#FFFFFF" transform="translate(9.845483, 9.728082) scale(-1, 1) rotate(-180.000000) translate(-9.845483, -9.728082) "></path>
        </g>
    </g>
</svg>