<?xml version="1.0" encoding="UTF-8"?>
<svg width="16px" height="16px" viewBox="0 0 16 16" version="1.1" xmlns="http://www.w3.org/2000/svg" xmlns:xlink="http://www.w3.org/1999/xlink">
    <!-- Generator: Sketch 58 (84663) - https://sketch.com -->
    <title>social/youtube</title>
    <desc>Created with Sketch.</desc>
    <g id="social/youtube" stroke="none" stroke-width="1" fill="none" fill-rule="evenodd">
        <g id="Group-3">
            <rect id="Rectangle" fill-opacity="0.217493444" fill="#FFFFFF" opacity="0" x="0" y="0" width="16" height="16"></rect>
            <path d="M15.8,4.8 C15.6,3.5 15,2.6 13.6,2.4 C11.4,2 8,2 8,2 C8,2 4.6,2 2.4,2.4 C1,2.6 0.3,3.5 0.2,4.8 C0,6.1 0,8 0,8 C0,8 0,9.9 0.2,11.2 C0.4,12.5 1,13.4 2.4,13.6 C4.6,14 8,14 8,14 C8,14 11.4,14 13.6,13.6 C15,13.3 15.6,12.5 15.8,11.2 C16,9.9 16,8 16,8 C16,8 16,6.1 15.8,4.8 Z M6,11 L6,5 L11,8 L6,11 Z" id="Shape" fill="#000000" fill-rule="nonzero"></path>
        </g>
    </g>
</svg>